<svg width="177" height="38" viewBox="0 0 177 38" fill="none" xmlns="http://www.w3.org/2000/svg">
<path fill-rule="evenodd" clip-rule="evenodd" d="M1.25 19H7.84393C7.84399 17.547 8.12689 16.1082 8.67649 14.7657C9.22615 13.4231 10.0318 12.2032 11.0474 11.1757C12.0631 10.1481 13.2688 9.333 14.5958 8.77688C15.9228 8.22077 17.3451 7.93454 18.7814 7.93454C20.2177 7.93454 21.64 8.22077 22.967 8.77688C24.294 9.333 25.4997 10.1481 26.5154 11.1757C27.531 12.2032 28.3367 13.4231 28.8863 14.7657C29.4359 16.1082 29.7188 17.547 29.7189 19H36.3089C36.3089 9.18315 28.447 1.25 18.7795 1.25C9.11193 1.25 1.25 9.18315 1.25 19ZM8.8732 23.1515C8.3344 21.8355 8.05706 20.4249 8.057 19.0005L12.3825 19.0005C12.3829 19.8496 12.5483 20.6903 12.8695 21.4748C13.191 22.2601 13.6622 22.9737 14.2563 23.5747C14.8504 24.1757 15.5556 24.6525 16.3318 24.9778C17.1079 25.303 17.9398 25.4704 18.7799 25.4704C19.6201 25.4704 20.452 25.303 21.2281 24.9778C22.0043 24.6525 22.7095 24.1757 23.3036 23.5747C23.8976 22.9737 24.3689 22.2601 24.6904 21.4748C25.0115 20.6904 25.177 19.8496 25.1773 19.0005H29.5019C29.5019 20.4249 29.2245 21.8355 28.6857 23.1515C28.1469 24.4677 27.3571 25.6636 26.3614 26.671C25.3657 27.6783 24.1837 28.4774 22.8828 29.0226C21.5819 29.5678 20.1876 29.8484 18.7795 29.8484C17.3714 29.8484 15.9771 29.5678 14.6762 29.0226C13.3752 28.4774 12.1932 27.6783 11.1975 26.671C10.2019 25.6636 9.41205 24.4677 8.8732 23.1515ZM25.0158 18.9979C25.0154 18.1705 24.8542 17.3512 24.5412 16.5867C24.2279 15.8214 23.7687 15.1261 23.1898 14.5403C22.6109 13.9546 21.9236 13.49 21.1672 13.173C20.4108 12.856 19.6001 12.6929 18.7814 12.6929C17.9627 12.6929 17.152 12.856 16.3956 13.173C15.6392 13.49 14.952 13.9546 14.3731 14.5403C13.7941 15.1261 13.3349 15.8214 13.0216 16.5867C12.7086 17.3512 12.5474 18.1705 12.547 18.9979L18.7799 18.9979H25.0158ZM5.52555 32.4605C8.92196 35.8838 13.6064 38 18.7795 38C29.1511 38 37.5589 29.4934 37.5589 19C37.5589 8.50659 29.1511 0 18.7795 0C8.40785 0 0 8.50659 0 19C0 24.2338 2.0916 28.9733 5.47525 32.4096L5.50038 32.435L5.52555 32.4605Z" fill="#CB0A08"/>
<path d="M56.2863 30.3639C53.2515 30.3639 50.1867 28.8439 48.6543 25.7431L50.998 24.6792C52.0797 26.7464 54.183 27.78 56.3464 27.78C59.0206 27.78 61.3642 26.4727 61.3642 24.0711C61.3642 21.4871 58.7802 20.7879 56.0158 20.2103C52.26 19.4503 48.9848 17.9911 48.9848 14.2215C48.9848 10.4823 52.4703 8.23275 56.3163 8.23275C59.3511 8.23275 62.2056 9.38795 63.6178 12.4279L61.3041 13.4615C60.3426 11.4855 58.4196 10.8167 56.3163 10.8167C53.7924 10.8167 51.5088 11.9719 51.5088 14.2823C51.5088 16.4407 54.0027 17.2311 56.5867 17.7479C60.6131 18.5079 63.9783 20.0279 63.9783 24.0711C63.9783 28.2663 60.3727 30.3639 56.2863 30.3639Z" fill="#CB0A08"/>
<path d="M67.4032 30.0599V8.53675H70.4981L76.9582 23.7063L83.4184 8.53675H86.5433V30.0599H83.9893V17.3527L84.44 12.5799H84.1395L82.577 16.8055L78.07 26.9287H75.9066L71.2793 16.6839L69.807 12.5191H69.5065L69.9272 17.2311V30.0599H67.4032Z" fill="#CB0A08"/>
<path d="M104.603 30.0599L102.29 23.7367H93.9367L91.7133 30.0599H88.979L96.7311 8.53675H99.5255L107.278 30.0599H104.603ZM97.302 13.8871L94.8382 21.1527H101.388L98.8945 13.8567L98.1734 11.1207H98.0532L97.302 13.8871Z" fill="#CB0A08"/>
<path d="M122.245 30.0599L115.604 21.3047H112.299V30.0599H109.745V8.53675H117.738C121.734 8.53675 124.769 10.2999 124.889 14.9207C124.889 19.0247 122.425 21.0615 118.609 21.2743L125.34 30.0599H122.245ZM112.299 11.0903V19.0551H117.768C120.652 19.0551 122.365 17.8087 122.365 14.9511C122.365 12.0327 120.442 11.0903 117.768 11.0903H112.299Z" fill="#CB0A08"/>
<path d="M132.923 30.0599V11.1207H126.253V8.53675H142.148V11.1207H135.477V30.0599H132.923Z" fill="#CB0A08"/>
<path d="M152.02 30.3639C148.144 30.3943 144.298 28.2967 144.298 24.1623V14.4343C144.298 10.2999 148.144 8.20235 152.02 8.23275C154.935 8.23275 157.609 9.32715 159.051 12.0935L156.768 13.1271C155.957 11.5159 154.034 10.8167 152.02 10.8167C149.346 10.8167 146.792 12.0327 146.792 14.5559V18.8119C148.084 16.8359 150.398 16.4103 152.02 16.4103C155.866 16.4407 159.592 18.5079 159.592 22.6423V24.1623C159.592 28.2663 155.866 30.3639 152.02 30.3639ZM152.02 27.78C154.635 27.78 157.128 26.5335 157.128 24.0407V22.6727C157.128 20.1799 154.635 18.9031 152.02 18.9031C149.346 18.9031 146.792 20.1495 146.792 22.6727V24.0407C146.792 26.5639 149.346 27.78 152.02 27.78Z" fill="#CB0A08"/>
<path d="M169.368 30.3639C166.514 30.3639 163.629 28.9655 162.127 26.1079L164.41 25.0439C165.372 26.8375 167.445 27.78 169.428 27.78C172.042 27.78 174.506 26.5639 174.506 23.3719V22.4295C174.506 19.8151 172.163 18.5383 169.579 18.5383C167.625 18.5383 166.153 18.9031 164.35 19.7847L162.968 19.8455V8.53675H175.949V11.0903H165.432V16.8359C166.784 16.3191 168.106 16.0759 169.428 16.0759C173.094 16.0759 176.94 17.8999 177 22.3991V23.3719C177 27.8711 173.695 30.3639 169.368 30.3639Z" fill="#CB0A08"/>
</svg>
