<svg width="1140" height="194" viewBox="0 0 1140 194" fill="none" xmlns="http://www.w3.org/2000/svg">
<path d="M143.745 122.086V122.365C143.745 132.771 142.257 142.341 139.28 151.075C136.488 159.808 132.116 167.334 126.161 173.652C120.393 179.97 113.136 184.895 104.39 188.425C95.6442 191.956 85.5029 193.721 73.9661 193.721H0.279117V153.583H39.9138H42.9841H75.0826C76.9433 153.583 79.4554 153.026 82.6187 151.911C85.9681 150.61 89.1315 148.659 92.1087 146.057C95.272 143.456 97.9702 140.204 100.203 136.302C102.436 132.399 103.553 127.661 103.553 122.086C103.553 116.697 102.436 112.052 100.203 108.149C97.9702 104.061 95.272 100.716 92.1087 98.1149C89.1315 95.5134 85.9681 93.6552 82.6187 92.5402C79.4554 91.2395 76.9433 90.5891 75.0826 90.5891H73.9661H52.4741C38.3321 90.5891 26.4231 87.3372 16.747 80.8333C7.07097 74.1437 1.58166 64.1092 0.279117 50.7299L0 45.4339C0 38.001 1.30255 31.4042 3.90764 25.6437C6.69882 19.8832 10.4204 15.1446 15.0723 11.4282C19.7243 7.71169 25.2136 4.92434 31.5403 3.0661C38.053 1.02203 45.0309 0 52.4741 0H73.9661V40.1379H65.5926H52.1949C47.3569 40.1379 44.3797 40.6954 43.2632 41.8104C42.3328 42.9253 41.8676 44.1332 41.8676 45.4339C41.8676 45.8056 41.8676 46.2701 41.8676 46.8276C42.0537 47.3851 42.4258 47.9425 42.9841 48.5C43.7284 49.0575 44.7518 49.522 46.0544 49.8937C47.543 50.2653 49.5898 50.4512 52.1949 50.4512H65.5926H73.9661C85.5029 50.4512 95.6442 52.2165 104.39 55.7471C113.136 59.2778 120.393 64.2021 126.161 70.5201C132.116 76.8381 136.488 84.364 139.28 93.0977C142.257 101.831 143.745 111.401 143.745 121.807V122.086Z" fill="#CB0A08"/>
<path d="M155.693 193.721V0H195.607L251.988 61.3218L308.37 0H348.284V193.721H308.37V65.7816L266.223 113.445H238.033L195.607 65.7816V193.721H155.693Z" fill="#CB0A08"/>
<path d="M436.304 0H477.892L553.533 165.569V193.721H521.714L499.384 143.828H414.533L392.483 193.721H360.663V165.569L436.304 0ZM457.238 48.7787L432.675 103.968H481.8L457.238 48.7787Z" fill="#CB0A08"/>
<path d="M607.222 143.828V193.721H567.308V0H640.158C651.695 0 661.836 1.76532 670.581 5.29597C679.327 8.6408 686.584 13.4722 692.353 19.7902C698.307 26.1082 702.68 33.6341 705.471 42.3678C708.448 50.9157 709.937 60.3927 709.937 70.7989C709.937 81.205 708.541 90.8678 705.75 99.7874C703.145 108.521 698.958 116.233 693.19 122.922C689.282 127.382 684.63 131.284 679.234 134.629L710.495 165.569V193.721H682.304L632.342 143.828H607.222ZM607.222 103.968H640.716C644.251 103.968 647.694 103.225 651.043 101.739C654.579 100.066 657.649 97.7433 660.254 94.7701C663.045 91.7969 665.278 88.3592 666.953 84.4569C668.814 80.3688 669.744 75.909 669.744 71.0776C669.744 65.6887 668.628 61.0431 666.395 57.1408C664.162 53.0527 661.464 49.8008 658.3 47.3851C655.323 44.7835 652.16 42.9253 648.81 41.8104C645.647 40.5096 643.135 39.8592 641.274 39.8592H607.222V103.968Z" fill="#CB0A08"/>
<path d="M858.717 0V39.8592H807.639V193.721H767.725V39.8592H714.693V0H858.717Z" fill="#CB0A08"/>
<path d="M934.284 62.9943C943.402 62.9943 951.961 64.6667 959.963 68.0115C967.964 71.3563 974.849 76.0019 980.618 81.9483C986.572 87.8946 991.224 94.863 994.573 102.853C998.109 110.658 999.877 119.02 999.877 127.94C999.877 137.045 998.202 145.593 994.853 153.583C991.689 161.574 987.13 168.542 981.176 174.489C975.221 180.249 968.243 184.895 960.242 188.425C952.427 191.956 944.053 193.721 935.121 193.721C926.004 193.721 917.444 192.049 909.443 188.704C901.441 185.359 894.463 180.714 888.509 174.767C882.554 168.821 877.809 161.945 874.274 154.141C870.924 146.15 869.25 137.695 869.25 128.776V126.267V65.2241C869.25 56.3046 870.924 47.9425 874.274 40.1379C877.809 32.1475 882.554 25.1791 888.509 19.2328C894.463 13.2864 901.441 8.6408 909.443 5.29597C917.444 1.76532 926.004 0 935.121 0C944.053 0 952.52 1.76532 960.521 5.29597C968.522 8.82664 975.5 13.5651 981.455 19.5115L981.734 19.7902C962.754 38.9301 953.171 48.4071 952.985 48.2213C947.961 43.3899 942.006 40.9741 935.121 40.9741C928.051 40.9741 922.003 43.2969 916.979 47.9425C914.746 50.3582 912.978 52.9598 911.676 55.7471C910.559 57.977 909.908 62.0651 909.722 68.0115C917.351 64.6667 925.538 62.9943 934.284 62.9943ZM952.985 146.894C957.823 141.876 960.242 135.744 960.242 128.497C960.242 124.966 959.591 121.715 958.288 118.741C956.986 115.582 955.125 112.795 952.706 110.379C947.496 105.548 941.355 103.132 934.284 103.132C927.213 103.132 921.166 105.548 916.141 110.379C911.303 115.768 908.884 121.9 908.884 128.776C908.884 135.837 911.396 141.969 916.421 147.172C921.445 152.004 927.585 154.42 934.842 154.42C938.192 154.42 941.448 153.769 944.611 152.468C947.775 151.168 950.566 149.309 952.985 146.894Z" fill="#CB0A08"/>
<path d="M1048.73 128.776C1049.1 136.58 1051.61 142.62 1056.26 146.894C1058.87 149.124 1061.66 150.982 1064.64 152.468C1067.62 153.769 1070.87 154.42 1074.41 154.42C1081.11 154.048 1086.97 151.446 1091.99 146.615C1094.41 144.199 1096.18 141.784 1097.3 139.368C1098.41 136.952 1099.16 133.421 1099.53 128.776C1099.34 121.9 1096.74 115.954 1091.71 110.937C1086.87 106.105 1080.92 103.597 1073.85 103.411H1008.54V0H1099.53V39.8592H1048.45V63.5517H1073.85C1082.41 63.1801 1090.78 64.5738 1098.97 67.7328C1107.16 70.8918 1114.41 75.6303 1120.74 81.9483C1127.07 88.4521 1131.81 95.7921 1134.98 103.968C1138.33 111.959 1140 120.135 1140 128.497C1140 136.859 1138.42 145.035 1135.26 153.026C1132.09 161.016 1127.35 168.171 1121.02 174.489C1114.69 180.992 1107.44 185.917 1099.25 189.261C1091.25 192.421 1083.06 194 1074.69 194C1066.5 194 1058.31 192.513 1050.12 189.54C1041.94 186.381 1034.68 181.643 1028.35 175.325C1021.84 169.007 1016.91 161.852 1013.56 153.862C1010.4 145.686 1008.72 137.324 1008.54 128.776H1048.73Z" fill="#CB0A08"/>
</svg>
