<svg width="1140" height="113" viewBox="0 0 1140 113" fill="none" xmlns="http://www.w3.org/2000/svg">
<path d="M53.6043 0V23.2504H23.4417V29.1036H43.2769C50.3804 29.1036 56.5004 30.1875 61.6368 32.3554C66.8825 34.5233 71.1446 37.5583 74.4231 41.4604C77.811 45.2542 80.2699 49.7525 81.7999 54.9554C83.4392 60.1583 84.2588 65.7405 84.2588 71.7022C84.2588 77.7722 83.3845 83.3544 81.636 88.4489C79.9967 93.435 77.4285 97.7707 73.9314 101.456C70.5435 105.141 66.2814 108.014 61.145 110.073C56.0086 112.024 50.0526 113 43.2769 113H0V0H53.6043ZM23.4417 89.7496H43.9326C45.0255 89.7496 46.5008 89.4245 48.3587 88.7741C50.3258 88.0153 52.1836 86.9314 53.9322 85.5223C55.79 84.0048 57.3747 82.1079 58.6861 79.8317C59.9975 77.447 60.6532 74.683 60.6532 71.5396C60.6532 68.7213 60.1068 66.1741 59.0139 63.8978C58.0304 61.5132 56.719 59.4537 55.0797 57.7194C53.5497 55.9851 51.7465 54.6844 49.6701 53.8173C47.7029 52.8417 45.6812 52.354 43.6047 52.354H23.4417V89.7496Z" fill="#CB0A08"/>
<path d="M142.851 0V23.2504H115.475V29.2662H142.851V52.5165H115.475V89.7496H142.851V113H92.0338V0H142.851Z" fill="#CB0A08"/>
<path d="M151.25 52.354V29.1036H181.905H194.527C195.073 29.1036 195.62 29.1036 196.166 29.1036C196.822 29.1036 197.423 29.1578 197.969 29.2662C197.532 27.2067 196.276 25.7434 194.199 24.8763C192.232 23.9007 190.702 23.413 189.609 23.413H181.905H151.25V0H190.101C194.472 0 198.571 0.758753 202.396 2.27626C206.221 3.68537 209.554 5.74485 212.395 8.45468C215.346 11.0561 217.586 14.1995 219.116 17.8849C220.755 21.4619 221.575 25.4182 221.575 29.754C221.575 32.247 221.138 34.4691 220.264 36.4201C225.509 40.2139 229.334 45.2 231.739 51.3784C234.252 57.4484 235.509 64.223 235.509 71.7022C235.509 77.7722 234.635 83.3544 232.886 88.4489C231.247 93.435 228.679 97.7707 225.181 101.456C221.794 105.141 217.532 108.014 212.395 110.073C207.259 112.024 201.303 113 194.527 113H151.25V89.7496H181.905H195.183C196.276 89.7496 197.751 89.4245 199.609 88.7741C201.576 88.0153 203.434 86.9314 205.182 85.5223C207.04 84.0048 208.625 82.1079 209.936 79.8317C211.248 77.447 211.903 74.683 211.903 71.5396C211.903 68.7213 211.357 66.1741 210.264 63.8978C209.281 61.5132 207.969 59.4537 206.33 57.7194C204.8 55.9851 202.997 54.6844 200.92 53.8173C198.953 52.8417 196.931 52.354 194.855 52.354H181.905H151.25Z" fill="#CB0A08"/>
<path d="M298.738 0C306.606 0 313.983 1.46331 320.868 4.38993C327.753 7.31655 333.763 11.3271 338.9 16.4216C344.146 21.4077 348.244 27.3151 351.194 34.1439C354.254 40.9727 355.784 48.2892 355.784 56.0935C355.784 64.0062 354.309 71.377 351.358 78.2058C348.517 85.0345 344.528 91.0504 339.392 96.2532C334.255 101.348 328.245 105.412 321.36 108.447C314.584 111.374 307.262 112.892 299.393 113C291.415 113 283.929 111.537 276.935 108.61C270.05 105.683 263.985 101.673 258.739 96.5784C253.603 91.4839 249.505 85.5223 246.445 78.6935C243.494 71.8647 242.019 64.5482 242.019 56.7439C242.019 48.9396 243.439 41.623 246.281 34.7942C249.231 27.8571 253.275 21.8412 258.411 16.7468C263.548 11.6523 269.558 7.58753 276.443 4.55252C283.438 1.51751 290.869 0 298.738 0ZM322.671 80.1568C325.84 77.0134 328.245 73.4365 329.884 69.4259C331.523 65.4153 332.343 61.1338 332.343 56.5813C332.343 52.0288 331.468 47.7472 329.72 43.7367C328.081 39.6178 325.622 35.9866 322.343 32.8432C319.174 29.8082 315.567 27.5319 311.524 26.0144C307.59 24.3885 303.328 23.5755 298.738 23.5755C289.339 23.5755 281.471 26.8273 275.132 33.3309C271.963 36.4743 269.558 40.0513 267.919 44.0619C266.28 47.964 265.46 52.1914 265.46 56.7439C265.46 61.2964 266.28 65.5779 267.919 69.5885C269.668 73.599 272.181 77.176 275.46 80.3194C278.629 83.4628 282.181 85.8475 286.115 87.4734C290.159 89.0993 294.475 89.9122 299.065 89.9122C303.765 89.8038 308.136 88.9367 312.18 87.3108C316.223 85.6849 319.72 83.3002 322.671 80.1568Z" fill="#CB0A08"/>
<path d="M441.241 113H417.799V23.2504H387.636V113H364.195V0H441.241V113Z" fill="#CB0A08"/>
<path d="M496.369 0H520.794L565.219 96.5784V113H546.531L533.417 83.8964H483.583L470.632 113H451.945V96.5784L496.369 0ZM508.5 28.4532L494.074 60.646H522.925L508.5 28.4532Z" fill="#CB0A08"/>
<path d="M630.099 23.5755C620.701 23.5755 612.832 26.8273 606.494 33.3309C600.046 39.7261 596.822 47.5305 596.822 56.7439C596.822 61.2964 597.696 65.5779 599.445 69.5885C601.193 73.599 603.652 77.176 606.822 80.3194C609.991 83.4628 613.543 85.8475 617.477 87.4734C621.52 89.0993 625.783 89.9122 630.263 89.9122H657.967V113H630.263C622.723 113 615.455 111.537 608.461 108.61C601.467 105.683 595.347 101.673 590.101 96.5784C584.965 91.4839 580.866 85.5223 577.806 78.6935C574.856 71.8647 573.38 64.5482 573.38 56.7439C573.38 48.9396 574.801 41.623 577.642 34.7942C580.593 27.9655 584.637 22.0038 589.773 16.9094C594.91 11.7065 600.92 7.58753 607.805 4.55252C614.799 1.51751 622.231 0 630.099 0H657.967V23.5755H630.099Z" fill="#CB0A08"/>
<path d="M743.002 113H719.56V52.5165H689.398V113H665.956V0H689.398V29.2662H719.56V0H743.002V113Z" fill="#CB0A08"/>
<path d="M808.29 0C816.159 0 823.535 1.46331 830.42 4.38993C837.305 7.31655 843.316 11.3271 848.452 16.4216C853.698 21.4077 857.796 27.3151 860.747 34.1439C863.807 40.9727 865.337 48.2892 865.337 56.0935C865.337 64.0062 863.861 71.377 860.911 78.2058C858.069 85.0345 854.08 91.0504 848.944 96.2532C843.808 101.348 837.797 105.412 830.912 108.447C824.136 111.374 816.814 112.892 808.946 113C800.968 113 793.482 111.537 786.488 108.61C779.603 105.683 773.537 101.673 768.292 96.5784C763.155 91.4839 759.057 85.5223 755.997 78.6935C753.046 71.8647 751.571 64.5482 751.571 56.7439C751.571 48.9396 752.992 41.623 755.833 34.7942C758.784 27.8571 762.827 21.8412 767.964 16.7468C773.1 11.6523 779.111 7.58753 785.996 4.55252C792.99 1.51751 800.421 0 808.29 0ZM832.223 80.1568C835.393 77.0134 837.797 73.4365 839.436 69.4259C841.075 65.4153 841.895 61.1338 841.895 56.5813C841.895 52.0288 841.021 47.7472 839.272 43.7367C837.633 39.6178 835.174 35.9866 831.896 32.8432C828.726 29.8082 825.12 27.5319 821.076 26.0144C817.142 24.3885 812.88 23.5755 808.29 23.5755C798.891 23.5755 791.023 26.8273 784.684 33.3309C781.515 36.4743 779.111 40.0513 777.472 44.0619C775.832 47.964 775.013 52.1914 775.013 56.7439C775.013 61.2964 775.832 65.5779 777.472 69.5885C779.22 73.599 781.734 77.176 785.012 80.3194C788.182 83.4628 791.733 85.8475 795.668 87.4734C799.711 89.0993 804.028 89.9122 808.618 89.9122C813.317 89.8038 817.689 88.9367 821.732 87.3108C825.776 85.6849 829.273 83.3002 832.223 80.1568Z" fill="#CB0A08"/>
<path d="M928.499 23.5755C919.1 23.5755 911.232 26.8273 904.893 33.3309C898.445 39.7261 895.222 47.5305 895.222 56.7439C895.222 61.2964 896.096 65.5779 897.844 69.5885C899.593 73.599 902.052 77.176 905.221 80.3194C908.39 83.4628 911.942 85.8475 915.876 87.4734C919.92 89.0993 924.182 89.9122 928.663 89.9122H956.367V113H928.663C921.122 113 913.855 111.537 906.86 108.61C899.866 105.683 893.746 101.673 888.5 96.5784C883.364 91.4839 879.266 85.5223 876.206 78.6935C873.255 71.8647 871.78 64.5482 871.78 56.7439C871.78 48.9396 873.201 41.623 876.042 34.7942C878.993 27.9655 883.036 22.0038 888.173 16.9094C893.309 11.7065 899.32 7.58753 906.205 4.55252C913.199 1.51751 920.63 0 928.499 0H956.367V23.5755H928.499Z" fill="#CB0A08"/>
<path d="M1048.29 0V23.2504H1018.29V113H994.846V23.2504H963.7V0H1048.29Z" fill="#CB0A08"/>
<path d="M1079.35 89.7496H1099.67C1100.77 89.7496 1102.24 89.4245 1104.1 88.7741C1106.07 88.0153 1107.92 86.9314 1109.67 85.5223C1111.53 84.0048 1113.12 82.1079 1114.43 79.8317C1115.74 77.447 1116.39 74.683 1116.39 71.5396C1116.39 68.7213 1115.85 66.1741 1114.76 63.8978C1113.77 61.5132 1112.46 59.4537 1110.82 57.7194C1109.29 55.9851 1107.49 54.6844 1105.41 53.8173C1103.44 52.8417 1101.42 52.354 1099.35 52.354H1079.35V89.7496ZM1099.02 29.1036C1106.12 29.1036 1112.24 30.1875 1117.38 32.3554C1122.62 34.5233 1126.89 37.5583 1130.16 41.4604C1133.55 45.2542 1136.01 49.7525 1137.54 54.9554C1139.18 60.0499 1140 65.6321 1140 71.7022C1140 77.7722 1139.13 83.3544 1137.38 88.4489C1135.74 93.435 1133.17 97.7707 1129.67 101.456C1126.28 105.141 1122.02 108.014 1116.89 110.073C1111.75 112.024 1105.79 113 1099.02 113H1055.91V0H1079.35V29.1036H1099.02Z" fill="#CB0A08"/>
</svg>
